<?xml version="1.0" encoding="iso-8859-1"?>
<!-- Generator: Adobe Illustrator 19.0.0, SVG Export Plug-In . SVG Version: 6.00 Build 0)  -->
<svg version="1.1" id="Layer_1" xmlns="http://www.w3.org/2000/svg" xmlns:xlink="http://www.w3.org/1999/xlink" x="0px" y="0px"
	 viewBox="0 0 512 512" style="enable-background:new 0 0 512 512;" xml:space="preserve">
<g>
	<g>
		<path d="M255.998,0C114.625,0,0.002,114.614,0.002,256c0,141.377,114.623,256,255.996,256c141.386,0,256-114.623,256-256
			C511.998,114.614,397.383,0,255.998,0z M234.605,225.604V97.307c0-11.411,9.247-20.658,20.658-20.658
			c11.411,0,20.658,9.247,20.658,20.658v128.297c24.903,7.583,43.95,28.52,48.877,54.463H185.732
			C190.659,254.123,209.701,233.186,234.605,225.604z M328.778,402.901c-0.022-0.186-0.004-0.363-0.04-0.549l-10.145-57.548
			c-1.275-7.224-8.167-12.049-15.386-10.774c-7.22,1.27-12.049,8.162-10.774,15.386l9.428,53.485h-33.327v-56.234
			c0-7.335-5.949-13.279-13.279-13.279c-7.33,0-13.279,5.945-13.279,13.279v56.234h-33.327l9.428-53.485
			c1.275-7.224-3.554-14.112-10.774-15.386c-7.22-1.275-14.112,3.55-15.386,10.774l-10.145,57.548
			c-0.031,0.186-0.018,0.363-0.04,0.549h-29.887l28.644-96.276h149.548l28.639,96.276H328.778z"/>
	</g>
</g>
<g>
</g>
<g>
</g>
<g>
</g>
<g>
</g>
<g>
</g>
<g>
</g>
<g>
</g>
<g>
</g>
<g>
</g>
<g>
</g>
<g>
</g>
<g>
</g>
<g>
</g>
<g>
</g>
<g>
</g>
</svg>
